<mxfile host="app.diagrams.net" modified="2022-03-18T15:27:17.345Z" agent="5.0 (Windows NT 10.0; Win64; x64) AppleWebKit/537.36 (KHTML, like Gecko) Chrome/99.0.4844.51 Safari/537.36" etag="Q8dtBGmptSHBfi2E3yWQ" version="17.1.3" type="github">
  <diagram name="Page-1" id="c37626ed-c26b-45fb-9056-f9ebc6bb27b6">
    <mxGraphModel dx="1689" dy="1111" grid="1" gridSize="10" guides="1" tooltips="1" connect="1" arrows="1" fold="1" page="1" pageScale="1" pageWidth="1100" pageHeight="850" background="none" math="0" shadow="0">
      <root>
        <mxCell id="0" />
        <mxCell id="1" parent="0" />
        <mxCell id="3WLnzOLtjU4_gYLpF9Gq-20" value="25 Subnet" style="whiteSpace=wrap;html=1;rounded=0;shadow=0;comic=0;strokeWidth=1;fontFamily=Verdana;fontSize=14;fillColor=#f5f5f5;strokeColor=none;fontStyle=1;verticalAlign=top;" vertex="1" parent="1">
          <mxGeometry x="366" y="560" width="1034" height="280" as="geometry" />
        </mxCell>
        <mxCell id="1c7a67bf8fd3230f-83" value="&lt;font style=&quot;font-size: 20px&quot;&gt;DC1 Firewall&lt;/font&gt;" style="whiteSpace=wrap;html=1;rounded=0;shadow=0;comic=0;strokeWidth=1;fontFamily=Verdana;fontSize=14;fillColor=#f5f5f5;strokeColor=none;verticalAlign=top;fontStyle=1" parent="1" vertex="1">
          <mxGeometry x="1700" y="240" width="340" height="950" as="geometry" />
        </mxCell>
        <mxCell id="1c7a67bf8fd3230f-80" value="25 Subnet" style="whiteSpace=wrap;html=1;rounded=0;shadow=0;comic=0;strokeWidth=1;fontFamily=Verdana;fontSize=14;fillColor=#f5f5f5;strokeColor=none;fontStyle=1;verticalAlign=top;" parent="1" vertex="1">
          <mxGeometry x="366" y="240" width="1034" height="280" as="geometry" />
        </mxCell>
        <mxCell id="1c7a67bf8fd3230f-15" value="Internet" style="ellipse;shape=cloud;whiteSpace=wrap;html=1;rounded=0;shadow=0;comic=0;strokeWidth=1;fontFamily=Verdana;fontSize=12;" parent="1" vertex="1">
          <mxGeometry x="1400" y="520" width="200" height="120" as="geometry" />
        </mxCell>
        <mxCell id="1c7a67bf8fd3230f-46" value="25 Subnet Switch&lt;br&gt;172.25.1.254" style="shape=mxgraph.cisco.routers.router;html=1;dashed=0;fillColor=#036897;strokeColor=#ffffff;strokeWidth=2;verticalLabelPosition=bottom;verticalAlign=top;rounded=0;shadow=0;comic=0;fontFamily=Verdana;fontSize=12;" parent="1" vertex="1">
          <mxGeometry x="1280" y="660" width="78" height="53" as="geometry" />
        </mxCell>
        <mxCell id="3WLnzOLtjU4_gYLpF9Gq-2" value="" style="endArrow=none;html=1;rounded=0;entryX=0;entryY=0.5;entryDx=0;entryDy=0;entryPerimeter=0;exitX=1;exitY=0.5;exitDx=0;exitDy=0;exitPerimeter=0;" edge="1" parent="1" source="1c7a67bf8fd3230f-46" target="3WLnzOLtjU4_gYLpF9Gq-9">
          <mxGeometry width="50" height="50" relative="1" as="geometry">
            <mxPoint x="850" y="470" as="sourcePoint" />
            <mxPoint x="1049.3600000000001" y="346.4200000000001" as="targetPoint" />
          </mxGeometry>
        </mxCell>
        <mxCell id="3WLnzOLtjU4_gYLpF9Gq-3" value="&lt;font style=&quot;font-size: 13px&quot;&gt;Gi1/0/5&lt;/font&gt;" style="edgeLabel;html=1;align=center;verticalAlign=middle;resizable=0;points=[];fontSize=13;" vertex="1" connectable="0" parent="3WLnzOLtjU4_gYLpF9Gq-2">
          <mxGeometry x="-0.791" relative="1" as="geometry">
            <mxPoint x="-1" as="offset" />
          </mxGeometry>
        </mxCell>
        <mxCell id="3WLnzOLtjU4_gYLpF9Gq-5" value="Port 1" style="shape=mxgraph.cisco.controllers_and_modules.system_controller;sketch=0;html=1;pointerEvents=1;dashed=0;fillColor=#036897;strokeColor=#ffffff;strokeWidth=2;verticalLabelPosition=bottom;verticalAlign=top;align=center;outlineConnect=0;fontSize=20;" vertex="1" parent="1">
          <mxGeometry x="1770" y="310" width="61" height="58" as="geometry" />
        </mxCell>
        <mxCell id="3WLnzOLtjU4_gYLpF9Gq-6" value="Port 6" style="shape=mxgraph.cisco.controllers_and_modules.system_controller;sketch=0;html=1;pointerEvents=1;dashed=0;fillColor=#036897;strokeColor=#ffffff;strokeWidth=2;verticalLabelPosition=bottom;verticalAlign=top;align=center;outlineConnect=0;fontSize=20;" vertex="1" parent="1">
          <mxGeometry x="1770" y="862" width="61" height="58" as="geometry" />
        </mxCell>
        <mxCell id="3WLnzOLtjU4_gYLpF9Gq-7" value="Port 7" style="shape=mxgraph.cisco.controllers_and_modules.system_controller;sketch=0;html=1;pointerEvents=1;dashed=0;fillColor=#036897;strokeColor=#ffffff;strokeWidth=2;verticalLabelPosition=bottom;verticalAlign=top;align=center;outlineConnect=0;fontSize=20;" vertex="1" parent="1">
          <mxGeometry x="1770" y="970" width="61" height="58" as="geometry" />
        </mxCell>
        <mxCell id="3WLnzOLtjU4_gYLpF9Gq-8" value="Port 8" style="shape=mxgraph.cisco.controllers_and_modules.system_controller;sketch=0;html=1;pointerEvents=1;dashed=0;fillColor=#036897;strokeColor=#ffffff;strokeWidth=2;verticalLabelPosition=bottom;verticalAlign=top;align=center;outlineConnect=0;fontSize=20;" vertex="1" parent="1">
          <mxGeometry x="1770" y="1080" width="61" height="58" as="geometry" />
        </mxCell>
        <mxCell id="3WLnzOLtjU4_gYLpF9Gq-9" value="Port 5" style="shape=mxgraph.cisco.controllers_and_modules.system_controller;sketch=0;html=1;pointerEvents=1;dashed=0;fillColor=#036897;strokeColor=#ffffff;strokeWidth=2;verticalLabelPosition=bottom;verticalAlign=top;align=center;outlineConnect=0;fontSize=20;" vertex="1" parent="1">
          <mxGeometry x="1770" y="750" width="61" height="58" as="geometry" />
        </mxCell>
        <mxCell id="3WLnzOLtjU4_gYLpF9Gq-10" value="Port 3" style="shape=mxgraph.cisco.controllers_and_modules.system_controller;sketch=0;html=1;pointerEvents=1;dashed=0;fillColor=#036897;strokeColor=#ffffff;strokeWidth=2;verticalLabelPosition=bottom;verticalAlign=top;align=center;outlineConnect=0;fontSize=20;" vertex="1" parent="1">
          <mxGeometry x="1770" y="530" width="61" height="58" as="geometry" />
        </mxCell>
        <mxCell id="3WLnzOLtjU4_gYLpF9Gq-11" value="Port 4" style="shape=mxgraph.cisco.controllers_and_modules.system_controller;sketch=0;html=1;pointerEvents=1;dashed=0;fillColor=#036897;strokeColor=#ffffff;strokeWidth=2;verticalLabelPosition=bottom;verticalAlign=top;align=center;outlineConnect=0;fontSize=20;" vertex="1" parent="1">
          <mxGeometry x="1770" y="638" width="61" height="58" as="geometry" />
        </mxCell>
        <mxCell id="3WLnzOLtjU4_gYLpF9Gq-13" value="" style="edgeStyle=orthogonalEdgeStyle;rounded=0;orthogonalLoop=1;jettySize=auto;html=1;fontSize=20;" edge="1" parent="1" source="3WLnzOLtjU4_gYLpF9Gq-12" target="3WLnzOLtjU4_gYLpF9Gq-10">
          <mxGeometry relative="1" as="geometry" />
        </mxCell>
        <mxCell id="3WLnzOLtjU4_gYLpF9Gq-12" value="Port 2" style="shape=mxgraph.cisco.controllers_and_modules.system_controller;sketch=0;html=1;pointerEvents=1;dashed=0;fillColor=#036897;strokeColor=#ffffff;strokeWidth=2;verticalLabelPosition=bottom;verticalAlign=top;align=center;outlineConnect=0;fontSize=20;" vertex="1" parent="1">
          <mxGeometry x="1770" y="420" width="61" height="58" as="geometry" />
        </mxCell>
        <mxCell id="3WLnzOLtjU4_gYLpF9Gq-14" value="" style="endArrow=none;html=1;rounded=0;fontSize=20;exitX=0.875;exitY=0.5;exitDx=0;exitDy=0;exitPerimeter=0;entryX=0;entryY=0.5;entryDx=0;entryDy=0;entryPerimeter=0;" edge="1" parent="1" source="1c7a67bf8fd3230f-15" target="3WLnzOLtjU4_gYLpF9Gq-10">
          <mxGeometry width="50" height="50" relative="1" as="geometry">
            <mxPoint x="1630" y="560" as="sourcePoint" />
            <mxPoint x="1680" y="510" as="targetPoint" />
          </mxGeometry>
        </mxCell>
        <mxCell id="3WLnzOLtjU4_gYLpF9Gq-18" value="Click On" style="ellipse;shape=cloud;whiteSpace=wrap;html=1;rounded=0;shadow=0;comic=0;strokeWidth=1;fontFamily=Verdana;fontSize=12;" vertex="1" parent="1">
          <mxGeometry x="1400" y="400" width="200" height="120" as="geometry" />
        </mxCell>
        <mxCell id="3WLnzOLtjU4_gYLpF9Gq-19" value="" style="endArrow=none;html=1;rounded=0;fontSize=20;entryX=0;entryY=0.5;entryDx=0;entryDy=0;entryPerimeter=0;exitX=0.875;exitY=0.5;exitDx=0;exitDy=0;exitPerimeter=0;" edge="1" parent="1" source="3WLnzOLtjU4_gYLpF9Gq-18" target="3WLnzOLtjU4_gYLpF9Gq-12">
          <mxGeometry width="50" height="50" relative="1" as="geometry">
            <mxPoint x="1210" y="740" as="sourcePoint" />
            <mxPoint x="1230" y="710" as="targetPoint" />
          </mxGeometry>
        </mxCell>
        <mxCell id="3WLnzOLtjU4_gYLpF9Gq-21" value="DC1-RTR-MPLS&lt;br&gt;172.25.1.4" style="shape=mxgraph.cisco.routers.router;html=1;dashed=0;fillColor=#036897;strokeColor=#ffffff;strokeWidth=2;verticalLabelPosition=bottom;verticalAlign=top;rounded=0;shadow=0;comic=0;fontFamily=Verdana;fontSize=12;" vertex="1" parent="1">
          <mxGeometry x="990" y="585" width="78" height="53" as="geometry" />
        </mxCell>
        <mxCell id="3WLnzOLtjU4_gYLpF9Gq-24" value="ipv4:8.49.128.180&lt;br&gt;172.25.1.4" style="shape=mxgraph.cisco.routers.router;html=1;dashed=0;fillColor=#036897;strokeColor=#ffffff;strokeWidth=2;verticalLabelPosition=bottom;verticalAlign=top;rounded=0;shadow=0;comic=0;fontFamily=Verdana;fontSize=12;" vertex="1" parent="1">
          <mxGeometry x="990" y="713" width="78" height="53" as="geometry" />
        </mxCell>
        <mxCell id="3WLnzOLtjU4_gYLpF9Gq-25" value="JAE102341Z5" style="shape=mxgraph.cisco.modems_and_phones.cable_modem;sketch=0;html=1;pointerEvents=1;dashed=0;fillColor=#036897;strokeColor=#ffffff;strokeWidth=2;verticalLabelPosition=bottom;verticalAlign=top;align=center;outlineConnect=0;fontSize=13;" vertex="1" parent="1">
          <mxGeometry x="770" y="740" width="74" height="35" as="geometry" />
        </mxCell>
        <mxCell id="3WLnzOLtjU4_gYLpF9Gq-26" value="" style="endArrow=none;html=1;rounded=0;fontSize=13;exitX=1;exitY=0.5;exitDx=0;exitDy=0;exitPerimeter=0;entryX=0;entryY=0.5;entryDx=0;entryDy=0;entryPerimeter=0;" edge="1" parent="1" source="3WLnzOLtjU4_gYLpF9Gq-21" target="1c7a67bf8fd3230f-46">
          <mxGeometry width="50" height="50" relative="1" as="geometry">
            <mxPoint x="1180" y="620" as="sourcePoint" />
            <mxPoint x="1230" y="570" as="targetPoint" />
          </mxGeometry>
        </mxCell>
        <mxCell id="3WLnzOLtjU4_gYLpF9Gq-29" value="FastEthernet0/0" style="edgeLabel;html=1;align=center;verticalAlign=middle;resizable=0;points=[];fontSize=13;rotation=0;" vertex="1" connectable="0" parent="3WLnzOLtjU4_gYLpF9Gq-26">
          <mxGeometry x="-0.6679" y="-2" relative="1" as="geometry">
            <mxPoint x="18" as="offset" />
          </mxGeometry>
        </mxCell>
        <mxCell id="3WLnzOLtjU4_gYLpF9Gq-30" value="Gi1/0/3" style="edgeLabel;html=1;align=center;verticalAlign=middle;resizable=0;points=[];fontSize=13;" vertex="1" connectable="0" parent="3WLnzOLtjU4_gYLpF9Gq-26">
          <mxGeometry x="0.5415" y="-1" relative="1" as="geometry">
            <mxPoint as="offset" />
          </mxGeometry>
        </mxCell>
        <mxCell id="3WLnzOLtjU4_gYLpF9Gq-27" value="" style="endArrow=none;html=1;rounded=0;fontSize=13;exitX=1;exitY=0.5;exitDx=0;exitDy=0;exitPerimeter=0;entryX=0;entryY=0.5;entryDx=0;entryDy=0;entryPerimeter=0;" edge="1" parent="1" source="3WLnzOLtjU4_gYLpF9Gq-24" target="1c7a67bf8fd3230f-46">
          <mxGeometry width="50" height="50" relative="1" as="geometry">
            <mxPoint x="1180" y="620" as="sourcePoint" />
            <mxPoint x="1230" y="570" as="targetPoint" />
          </mxGeometry>
        </mxCell>
        <mxCell id="3WLnzOLtjU4_gYLpF9Gq-31" value="Gi1/0/25" style="edgeLabel;html=1;align=center;verticalAlign=middle;resizable=0;points=[];fontSize=13;" vertex="1" connectable="0" parent="3WLnzOLtjU4_gYLpF9Gq-27">
          <mxGeometry x="0.6133" y="-2" relative="1" as="geometry">
            <mxPoint x="1" as="offset" />
          </mxGeometry>
        </mxCell>
        <mxCell id="3WLnzOLtjU4_gYLpF9Gq-32" value="Gi0/0/0" style="edgeLabel;html=1;align=center;verticalAlign=middle;resizable=0;points=[];fontSize=13;" vertex="1" connectable="0" parent="3WLnzOLtjU4_gYLpF9Gq-27">
          <mxGeometry x="-0.8327" y="-4" relative="1" as="geometry">
            <mxPoint x="23" y="-9" as="offset" />
          </mxGeometry>
        </mxCell>
        <mxCell id="3WLnzOLtjU4_gYLpF9Gq-28" value="" style="endArrow=none;html=1;rounded=0;fontSize=13;exitX=1;exitY=0.45;exitDx=0;exitDy=0;exitPerimeter=0;entryX=-0.042;entryY=0.733;entryDx=0;entryDy=0;entryPerimeter=0;" edge="1" parent="1" source="3WLnzOLtjU4_gYLpF9Gq-25" target="3WLnzOLtjU4_gYLpF9Gq-24">
          <mxGeometry width="50" height="50" relative="1" as="geometry">
            <mxPoint x="1180" y="620" as="sourcePoint" />
            <mxPoint x="1230" y="570" as="targetPoint" />
          </mxGeometry>
        </mxCell>
      </root>
    </mxGraphModel>
  </diagram>
</mxfile>
